<?xml version="1.0" encoding="UTF-8"?>
<!DOCTYPE svg PUBLIC "-//W3C//DTD SVG 1.1//EN" "http://www.w3.org/Graphics/SVG/1.1/DTD/svg11.dtd">
<svg xmlns="http://www.w3.org/2000/svg" version="1.1" width="2721px" height="261px" style="shape-rendering:geometricPrecision; text-rendering:geometricPrecision; image-rendering:optimizeQuality; fill-rule:evenodd; clip-rule:evenodd" xmlns:xlink="http://www.w3.org/1999/xlink">
<g><path style="opacity:1" fill="#fefffe" d="M -0.5,-0.5 C 906.5,-0.5 1813.5,-0.5 2720.5,-0.5C 2720.5,86.5 2720.5,173.5 2720.5,260.5C 1813.5,260.5 906.5,260.5 -0.5,260.5C -0.5,173.5 -0.5,86.5 -0.5,-0.5 Z"/></g>
<g><path style="opacity:1" fill="#8352cf" d="M 2651.5,11.5 C 2653.47,11.2606 2655.3,11.5939 2657,12.5C 2662.78,27.8272 2668.94,42.9938 2675.5,58C 2675.14,59.8853 2673.97,60.7186 2672,60.5C 2658.92,57.6349 2648.58,61.6349 2641,72.5C 2638.33,81.4244 2639.66,89.7578 2645,97.5C 2654.16,110.492 2662.83,123.826 2671,137.5C 2682.51,171.316 2674.67,199.816 2647.5,223C 2634.85,233.057 2620.52,239.557 2604.5,242.5C 2602.27,241.781 2600.44,240.448 2599,238.5C 2590.56,224.952 2583.73,210.618 2578.5,195.5C 2578.59,193.575 2579.59,192.408 2581.5,192C 2589.77,190.131 2597.77,187.464 2605.5,184C 2620.71,172.818 2623.54,158.985 2614,142.5C 2607,132.833 2600,123.167 2593,113.5C 2574.62,70.9732 2586.12,39.4732 2627.5,19C 2635.43,15.8591 2643.43,13.3591 2651.5,11.5 Z"/></g>
<g><path style="opacity:1" fill="#8352cf" d="M 1222.5,12.5 C 1252.38,10.2865 1277.54,19.9532 1298,41.5C 1301.14,45.4693 1303.64,49.8026 1305.5,54.5C 1302.38,62.7374 1298.21,70.4041 1293,77.5C 1289.06,83.6064 1284.23,88.9397 1278.5,93.5C 1273.68,89.1819 1269.01,84.6819 1264.5,80C 1246.53,66.928 1228.2,66.2614 1209.5,78C 1193.94,94.3637 1187.77,113.864 1191,136.5C 1196.17,172.836 1216.67,187.003 1252.5,179C 1257.51,177.555 1262.34,175.721 1267,173.5C 1266.08,158.015 1264.91,142.515 1263.5,127C 1263.67,124.5 1263.83,122 1264,119.5C 1264.5,119 1265,118.5 1265.5,118C 1283.14,119.465 1300.8,119.965 1318.5,119.5C 1318.74,142.456 1318.91,165.456 1319,188.5C 1319.5,201.855 1320.33,215.188 1321.5,228.5C 1321.39,230.641 1320.72,232.475 1319.5,234C 1308.6,232.776 1297.93,230.276 1287.5,226.5C 1261.4,238.305 1234.4,241.138 1206.5,235C 1179.37,225.517 1159.87,207.683 1148,181.5C 1134.05,144.844 1134.05,108.177 1148,71.5C 1162.16,38.0413 1187,18.3747 1222.5,12.5 Z"/></g>
<g><path style="opacity:1" fill="#8352cf" d="M 1726.5,13.5 C 1742.45,15.5587 1758.45,16.0587 1774.5,15C 1775.33,15.8333 1776.17,16.6667 1777,17.5C 1802.3,87.7278 1825.8,158.561 1847.5,230C 1847.56,231.711 1846.89,233.044 1845.5,234C 1836.89,235.106 1828.22,235.606 1819.5,235.5C 1810.45,235.59 1801.45,235.09 1792.5,234C 1790.95,232.786 1789.78,231.286 1789,229.5C 1787.3,221.032 1785.13,212.699 1782.5,204.5C 1780.92,203.702 1779.26,203.202 1777.5,203C 1768.67,202.833 1759.83,202.667 1751,202.5C 1741.1,202.371 1731.26,202.871 1721.5,204C 1720.54,205.419 1719.71,206.919 1719,208.5C 1717.46,215.202 1715.79,221.869 1714,228.5C 1713.21,230.587 1712.04,232.421 1710.5,234C 1695.55,235.6 1680.55,235.934 1665.5,235C 1663.11,234.697 1660.94,233.863 1659,232.5C 1659.01,228.446 1659.68,224.446 1661,220.5C 1682.16,151.186 1703.99,82.1864 1726.5,13.5 Z"/></g>
<g><path style="opacity:1" fill="#8352cf" d="M 139.5,15.5 C 143.846,15.3343 148.179,15.501 152.5,16C 154.286,16.7845 155.786,17.9512 157,19.5C 157.678,35.9265 159.012,52.2598 161,68.5C 158.422,69.1414 155.755,69.4748 153,69.5C 130.224,66.9528 107.391,65.7862 84.5,66C 80.081,66.9317 77.581,69.765 77,74.5C 75.9456,81.6976 76.6122,88.6976 79,95.5C 80.3189,97.4875 82.1523,98.6541 84.5,99C 105.832,98.6275 127.165,98.2942 148.5,98C 150.021,101.644 150.855,105.477 151,109.5C 151.167,115.333 151.333,121.167 151.5,127C 151.68,135.595 151.013,144.095 149.5,152.5C 148.758,153.287 147.925,153.953 147,154.5C 132.132,152.353 117.132,151.353 102,151.5C 94.4002,151.366 86.9002,151.866 79.5,153C 78.6667,153.833 77.8333,154.667 77,155.5C 76.8333,160.333 76.6667,165.167 76.5,170C 77.3798,191.186 78.2131,212.353 79,233.5C 78.0975,234.701 76.9308,235.535 75.5,236C 59.8057,236.819 44.139,236.486 28.5,235C 26.7536,234.529 25.087,233.862 23.5,233C 22.8432,226.911 22.5098,220.744 22.5,214.5C 23.3737,186.338 24.0404,158.171 24.5,130C 23.5544,93.1462 22.3877,56.3129 21,19.5C 46.4289,19.0855 71.9289,18.9189 97.5,19C 111.68,18.1517 125.68,16.985 139.5,15.5 Z"/></g>
<g><path style="opacity:1" fill="#8352cf" d="M 949.5,16.5 C 953.909,15.6185 957.409,16.9518 960,20.5C 983.273,57.4356 1006.94,94.1023 1031,130.5C 1032.71,132.543 1034.71,134.21 1037,135.5C 1038.11,129.077 1038.61,122.577 1038.5,116C 1037.04,84.841 1036.21,53.6743 1036,22.5C 1038.89,21.2203 1042.06,20.5536 1045.5,20.5C 1057.33,19.8518 1069.17,19.1851 1081,18.5C 1084.09,18.522 1087.09,18.8553 1090,19.5C 1088.26,90.7137 1087.09,161.88 1086.5,233C 1071.23,234.822 1055.9,234.822 1040.5,233C 1014.97,195.637 989.638,158.137 964.5,120.5C 963.675,119.614 962.675,119.281 961.5,119.5C 962.351,157.166 962.851,194.833 963,232.5C 962.5,233 962,233.5 961.5,234C 944.5,234.667 927.5,234.667 910.5,234C 910,233.5 909.5,233 909,232.5C 909.433,197.999 910.267,163.499 911.5,129C 910.296,93.5002 909.463,58.0002 909,22.5C 909.5,22 910,21.5 910.5,21C 923.78,20.6742 936.78,19.1742 949.5,16.5 Z"/></g>
<g><path style="opacity:1" fill="#8352cf" d="M 1535.5,16.5 C 1553.39,15.3875 1570.72,17.8875 1587.5,24C 1612.6,36.8474 1624.6,57.514 1623.5,86C 1624.38,102.947 1620.22,118.447 1611,132.5C 1604.82,138.35 1598.98,144.517 1593.5,151C 1605.28,177.69 1616.28,204.69 1626.5,232C 1626.36,232.772 1626.02,233.439 1625.5,234C 1616.88,235.087 1608.22,235.587 1599.5,235.5C 1589.74,235.706 1580.07,235.039 1570.5,233.5C 1562.11,211.161 1553.61,188.828 1545,166.5C 1540.8,161.264 1535.3,159.264 1528.5,160.5C 1525.06,160.554 1521.89,161.22 1519,162.5C 1519.46,186.175 1520.13,209.842 1521,233.5C 1518.93,234.264 1516.76,234.764 1514.5,235C 1500.17,235.667 1485.83,235.667 1471.5,235C 1468.99,234.907 1466.83,234.074 1465,232.5C 1465.76,193.173 1466.59,153.84 1467.5,114.5C 1467.29,83.4574 1466.45,52.4574 1465,21.5C 1466.83,19.9262 1468.99,19.0929 1471.5,19C 1492.99,18.1577 1514.33,17.3244 1535.5,16.5 Z"/></g>
<g><path style="opacity:1" fill="#8352cf" d="M 2530.5,16.5 C 2533.83,16.5 2537.17,16.5 2540.5,16.5C 2540.76,25.031 2540.43,33.531 2539.5,42C 2540.96,50.1189 2541.46,58.2856 2541,66.5C 2538.59,67.1394 2536.09,67.4728 2533.5,67.5C 2521.83,66.7632 2510.17,66.0965 2498.5,65.5C 2498.06,82.6626 2497.73,99.8293 2497.5,117C 2498.63,155.502 2499.46,194.002 2500,232.5C 2497.49,234.155 2494.66,234.989 2491.5,235C 2477.83,235.667 2464.17,235.667 2450.5,235C 2447.67,234.955 2445.17,234.121 2443,232.5C 2443.46,194.333 2444.3,156.166 2445.5,118C 2445.25,100.83 2444.92,83.6631 2444.5,66.5C 2429.56,68.2649 2414.56,69.2649 2399.5,69.5C 2402.25,52.5443 2404.59,35.5443 2406.5,18.5C 2407.67,18.1667 2408.83,17.8333 2410,17.5C 2450.35,21.6897 2490.52,21.3563 2530.5,16.5 Z"/></g>
<g><path style="opacity:1" fill="#8352cf" d="M 585.5,17.5 C 611.519,17.1723 637.519,17.6723 663.5,19C 701.578,22.7532 727.078,42.5866 740,78.5C 755.015,122.038 750.015,163.038 725,201.5C 709.562,222.578 688.729,233.745 662.5,235C 633.109,235.916 603.776,235.416 574.5,233.5C 574.167,227.667 573.833,221.833 573.5,216C 574.455,186.673 575.121,157.34 575.5,128C 574.623,92.1662 574.123,56.3329 574,20.5C 577.8,19.0344 581.633,18.0344 585.5,17.5 Z"/></g>
<g><path style="opacity:1" fill="#8352cf" d="M 800.5,17.5 C 818.873,18.47 837.206,18.8033 855.5,18.5C 855.833,23 856.167,27.5 856.5,32C 852.895,92.4813 852.561,152.981 855.5,213.5C 855.333,219.833 855.167,226.167 855,232.5C 854.25,233.126 853.416,233.626 852.5,234C 835.161,235.963 817.828,235.963 800.5,234C 799.333,233.5 798.5,232.667 798,231.5C 799.459,193.359 800.625,155.193 801.5,117C 801.046,89.8283 800.379,62.6616 799.5,35.5C 799.52,29.4223 799.854,23.4223 800.5,17.5 Z"/></g>
<g><path style="opacity:1" fill="#8352cf" d="M 1894.5,17.5 C 1922.84,17.3334 1951.17,17.5 1979.5,18C 1996.86,18.3359 2012.86,23.0026 2027.5,32C 2041.91,46.9066 2047.75,64.7399 2045,85.5C 2041.69,98.4559 2035.52,109.789 2026.5,119.5C 2039.92,129.324 2047.42,142.657 2049,159.5C 2051.09,178.807 2046.76,196.473 2036,212.5C 2023.65,226.296 2008.15,233.796 1989.5,235C 1958.48,235.91 1927.48,235.577 1896.5,234C 1893.99,233.907 1891.83,233.074 1890,231.5C 1890.5,196.167 1891.33,160.834 1892.5,125.5C 1891.74,90.1512 1890.91,54.8179 1890,19.5C 1891.62,18.9011 1893.12,18.2344 1894.5,17.5 Z"/></g>
<g><path style="opacity:1" fill="#8352cf" d="M 2099.5,17.5 C 2127.84,17.3334 2156.17,17.5 2184.5,18C 2201.86,18.3359 2217.86,23.0026 2232.5,32C 2246.91,46.9066 2252.75,64.7399 2250,85.5C 2246.69,98.4559 2240.52,109.789 2231.5,119.5C 2244.92,129.324 2252.42,142.657 2254,159.5C 2256.09,178.807 2251.76,196.473 2241,212.5C 2228.65,226.296 2213.15,233.796 2194.5,235C 2163.48,235.91 2132.48,235.577 2101.5,234C 2098.99,233.907 2096.83,233.074 2095,231.5C 2095.5,196.167 2096.33,160.834 2097.5,125.5C 2096.74,90.1512 2095.91,54.8179 2095,19.5C 2096.62,18.9011 2098.12,18.2344 2099.5,17.5 Z"/></g>
<g><path style="opacity:1" fill="#8352cf" d="M 2301.5,17.5 C 2319.87,18.47 2338.21,18.8033 2356.5,18.5C 2356.83,23 2357.17,27.5 2357.5,32C 2353.89,92.4813 2353.56,152.981 2356.5,213.5C 2356.33,219.833 2356.17,226.167 2356,232.5C 2355.25,233.126 2354.42,233.626 2353.5,234C 2336.16,235.963 2318.83,235.963 2301.5,234C 2300.33,233.5 2299.5,232.667 2299,231.5C 2300.46,193.359 2301.63,155.193 2302.5,117C 2302.05,89.8283 2301.38,62.6616 2300.5,35.5C 2300.52,29.4223 2300.85,23.4223 2301.5,17.5 Z"/></g>
<g><path style="opacity:1" fill="#8352cf" d="M 204.5,18.5 C 239.834,19.6111 275.168,19.6111 310.5,18.5C 316.833,18.6667 323.167,18.8333 329.5,19C 330.416,19.3742 331.25,19.8742 332,20.5C 334.278,29.3254 335.611,38.3254 336,47.5C 336.472,53.3357 336.972,59.169 337.5,65C 337.464,67.0937 337.131,69.0937 336.5,71C 320.858,70.0581 305.191,69.0581 289.5,68C 280.833,67.3333 272.167,67.3333 263.5,68C 261.508,68.5743 260.008,69.741 259,71.5C 258.144,79.2318 258.477,86.8984 260,94.5C 260.935,97.1019 262.768,98.6019 265.5,99C 287.875,99.0971 310.208,98.4304 332.5,97C 333.081,97.8926 333.415,98.8926 333.5,100C 331.256,116.764 329.756,133.597 329,150.5C 322.222,151.378 315.389,151.212 308.5,150C 292.833,149.333 277.167,149.333 261.5,150C 260.584,150.374 259.75,150.874 259,151.5C 258.161,160.22 258.495,168.887 260,177.5C 261.952,179.894 264.452,181.394 267.5,182C 289.865,184.08 312.198,183.58 334.5,180.5C 340.511,179.83 342.845,182.497 341.5,188.5C 340.404,202.267 338.571,215.934 336,229.5C 335.484,232.034 334.317,234.2 332.5,236C 290.194,234.92 247.861,234.254 205.5,234C 205,233.5 204.5,233 204,232.5C 204.513,196.334 205.346,160.168 206.5,124C 206.061,91.4815 205.061,58.9815 203.5,26.5C 203.551,23.7471 203.884,21.0805 204.5,18.5 Z"/></g>
<g><path style="opacity:1" fill="#8352cf" d="M 389.5,18.5 C 424.834,19.6111 460.168,19.6111 495.5,18.5C 501.833,18.6667 508.167,18.8333 514.5,19C 515.416,19.3742 516.25,19.8742 517,20.5C 519.278,29.3254 520.611,38.3254 521,47.5C 521.472,53.3357 521.972,59.169 522.5,65C 522.464,67.0937 522.131,69.0937 521.5,71C 505.858,70.0581 490.191,69.0581 474.5,68C 465.833,67.3333 457.167,67.3333 448.5,68C 446.508,68.5743 445.008,69.741 444,71.5C 443.144,79.2318 443.477,86.8984 445,94.5C 445.935,97.1019 447.768,98.6019 450.5,99C 472.875,99.0971 495.208,98.4304 517.5,97C 518.081,97.8926 518.415,98.8926 518.5,100C 516.256,116.764 514.756,133.597 514,150.5C 507.222,151.378 500.389,151.212 493.5,150C 477.833,149.333 462.167,149.333 446.5,150C 445.584,150.374 444.75,150.874 444,151.5C 443.161,160.22 443.495,168.887 445,177.5C 446.952,179.894 449.452,181.394 452.5,182C 474.865,184.08 497.198,183.58 519.5,180.5C 525.511,179.83 527.845,182.497 526.5,188.5C 525.404,202.267 523.571,215.934 521,229.5C 520.484,232.034 519.317,234.2 517.5,236C 475.194,234.92 432.861,234.254 390.5,234C 390,233.5 389.5,233 389,232.5C 389.513,196.334 390.346,160.168 391.5,124C 391.061,91.4815 390.061,58.9815 388.5,26.5C 388.551,23.7471 388.884,21.0805 389.5,18.5 Z"/></g>
<g><path style="opacity:1" fill="#fefffe" d="M 1947.5,61.5 C 1955.17,61.3336 1962.84,61.5003 1970.5,62C 1988.88,63.6944 1995.04,73.1944 1989,90.5C 1984.04,95.8253 1977.88,98.6586 1970.5,99C 1963.17,99.6667 1955.83,99.6667 1948.5,99C 1944.69,98.5748 1942.86,96.4081 1943,92.5C 1942.3,82.8009 1942.63,73.1342 1944,63.5C 1945.3,62.9152 1946.47,62.2485 1947.5,61.5 Z"/></g>
<g><path style="opacity:1" fill="#fefffe" d="M 2152.5,61.5 C 2160.17,61.3336 2167.84,61.5003 2175.5,62C 2193.88,63.6944 2200.04,73.1944 2194,90.5C 2189.04,95.8253 2182.88,98.6586 2175.5,99C 2168.17,99.6667 2160.83,99.6667 2153.5,99C 2149.69,98.5748 2147.86,96.4081 2148,92.5C 2147.3,82.8009 2147.63,73.1342 2149,63.5C 2150.3,62.9152 2151.47,62.2485 2152.5,61.5 Z"/></g>
<g><path style="opacity:1" fill="#fefffe" d="M 1524.5,62.5 C 1532.55,62.2773 1540.55,62.7773 1548.5,64C 1558.26,66.2819 1564.76,72.1152 1568,81.5C 1574.38,107.466 1564.38,120.799 1538,121.5C 1531.11,121.348 1524.27,120.682 1517.5,119.5C 1517.33,102.163 1517.5,84.8301 1518,67.5C 1519.27,64.5081 1521.44,62.8414 1524.5,62.5 Z"/></g>
<g><path style="opacity:1" fill="#fefffe" d="M 636.5,65.5 C 671.32,64.1427 691.153,80.8094 696,115.5C 698.05,133.11 695.05,149.777 687,165.5C 675.295,183.303 658.795,190.47 637.5,187C 633.611,186.938 630.111,185.771 627,183.5C 625.405,148.856 625.071,114.189 626,79.5C 626.333,76.1667 626.667,72.8333 627,69.5C 629.968,67.4889 633.134,66.1556 636.5,65.5 Z"/></g>
<g><path style="opacity:1" fill="#fefffe" d="M 1751.5,89.5 C 1758.58,107.312 1763.58,125.812 1766.5,145C 1766.37,146.981 1765.7,148.647 1764.5,150C 1755.83,150.667 1747.17,150.667 1738.5,150C 1737.58,149.626 1736.75,149.126 1736,148.5C 1736.02,142.387 1737.02,136.387 1739,130.5C 1743.07,116.785 1747.24,103.118 1751.5,89.5 Z"/></g>
<g><path style="opacity:1" fill="#fefffe" d="M 1949.5,144.5 C 1959.88,144.162 1970.22,144.662 1980.5,146C 1992.7,150.559 1997.54,159.392 1995,172.5C 1993.26,179.237 1989.1,183.737 1982.5,186C 1969.91,188.134 1957.41,187.967 1945,185.5C 1943.17,172.194 1943,158.86 1944.5,145.5C 1946.41,145.784 1948.08,145.451 1949.5,144.5 Z"/></g>
<g><path style="opacity:1" fill="#fefffe" d="M 2154.5,144.5 C 2164.88,144.162 2175.22,144.662 2185.5,146C 2197.7,150.559 2202.54,159.392 2200,172.5C 2198.26,179.237 2194.1,183.737 2187.5,186C 2174.91,188.134 2162.41,187.967 2150,185.5C 2148.17,172.194 2148,158.86 2149.5,145.5C 2151.41,145.784 2153.08,145.451 2154.5,144.5 Z"/></g>
</svg>
